<svg xmlns="http://www.w3.org/2000/svg" width="800" height="600" viewBox="0 0 800 600">
  <rect width="800" height="600" fill="#1a0a04"/>
  <path d="M 350 130 Q 320 200 310 300 Q 300 390 330 430 L 470 430 Q 500 390 490 300 Q 480 200 450 130 Z" fill="#5a2b10" opacity="0.9"/>
  <path d="M 350 130 Q 320 200 310 300 Q 300 390 330 430 L 470 430 Q 500 390 490 300 Q 480 200 450 130 Z" fill="none" stroke="#c9924a" stroke-width="1.5" opacity="0.4"/>
  <ellipse cx="400" cy="130" rx="55" ry="16" fill="#7a3d1a" opacity="0.8"/>
  <path d="M 320 250 Q 400 240 480 255" fill="none" stroke="#c9924a" stroke-width="1" opacity="0.3"/>
  <path d="M 315 330 Q 400 318 485 334" fill="none" stroke="#c9924a" stroke-width="1" opacity="0.3"/>
  <path d="M 318 390 Q 400 380 482 392" fill="none" stroke="#c9924a" stroke-width="1" opacity="0.3"/>
  <ellipse cx="400" cy="430" rx="72" ry="14" fill="#3d1d0c" opacity="0.7"/>
  <text x="400" y="545" text-anchor="middle" fill="rgba(201,146,74,0.25)" font-family="Georgia,serif" font-size="13" font-style="italic" letter-spacing="0.15em">ceramics</text>
</svg>
