<svg xmlns="http://www.w3.org/2000/svg" width="800" height="600" viewBox="0 0 800 600">
  <rect width="800" height="600" fill="#060e18"/>
  <rect x="180" y="120" width="200" height="380" rx="4" fill="#0d1e2c" opacity="0.85"/>
  <rect x="420" y="120" width="200" height="180" rx="4" fill="#122535" opacity="0.8"/>
  <rect x="420" y="320" width="200" height="180" rx="4" fill="#0e1f30" opacity="0.8"/>
  <path d="M 220 180 L 340 180 L 340 400 L 220 400 Z" fill="#2e5f7a" opacity="0.25"/>
  <path d="M 220 180 Q 280 240 340 200 Q 280 280 220 260 Z" fill="#6ab8e0" opacity="0.2"/>
  <circle cx="520" cy="210" r="50" fill="none" stroke="#6ab8e0" stroke-width="3" opacity="0.4"/>
  <circle cx="520" cy="210" r="30" fill="#2e5f7a" opacity="0.4"/>
  <line x1="440" y1="340" x2="600" y2="340" stroke="#6ab8e0" stroke-width="2" opacity="0.4"/>
  <line x1="440" y1="370" x2="580" y2="370" stroke="#6ab8e0" stroke-width="1.5" opacity="0.35"/>
  <line x1="440" y1="398" x2="560" y2="398" stroke="#6ab8e0" stroke-width="1.5" opacity="0.3"/>
  <line x1="440" y1="426" x2="590" y2="426" stroke="#6ab8e0" stroke-width="1.5" opacity="0.25"/>
  <text x="400" y="560" text-anchor="middle" fill="rgba(106,184,224,0.25)" font-family="Georgia,serif" font-size="13" font-style="italic" letter-spacing="0.15em">screenprinting</text>
</svg>
