<svg xmlns="http://www.w3.org/2000/svg" width="800" height="600" viewBox="0 0 800 600">
  <rect width="800" height="600" fill="#060e18"/>
  <rect x="160" y="140" width="480" height="340" rx="2" fill="#0a1a28" opacity="0.9"/>
  <rect x="160" y="140" width="480" height="340" rx="2" fill="none" stroke="#2e5f7a" stroke-width="1" opacity="0.4"/>
  <path d="M 200 300 Q 260 220 320 260 Q 360 285 400 240 Q 440 195 500 250 Q 550 295 600 240" fill="none" stroke="#6ab8e0" stroke-width="2.5" opacity="0.55"/>
  <path d="M 200 340 Q 260 380 320 350 Q 380 320 440 360 Q 500 395 560 355" fill="none" stroke="#4a8aaa" stroke-width="2" opacity="0.4"/>
  <rect x="190" y="160" width="80" height="50" rx="3" fill="#2e5f7a" opacity="0.3"/>
  <rect x="290" y="175" width="60" height="35" rx="3" fill="#2e5f7a" opacity="0.2"/>
  <rect x="500" y="165" width="100" height="45" rx="3" fill="#2e5f7a" opacity="0.25"/>
  <text x="400" y="545" text-anchor="middle" fill="rgba(106,184,224,0.25)" font-family="Georgia,serif" font-size="13" font-style="italic" letter-spacing="0.15em">screenprinting</text>
</svg>
