<svg xmlns="http://www.w3.org/2000/svg" width="800" height="600" viewBox="0 0 800 600">
  <rect width="800" height="600" fill="#0a0516"/>
  <path d="M 200 420 Q 250 350 300 380 Q 330 395 350 340 Q 380 270 420 300 Q 450 320 480 260 Q 510 200 560 230 Q 590 245 600 200" fill="none" stroke="#503575" stroke-width="2" opacity="0.7"/>
  <path d="M 160 320 Q 220 380 280 340 Q 340 300 370 360 Q 400 415 460 380 Q 520 345 580 400 Q 620 430 650 390" fill="none" stroke="#7050a0" stroke-width="1.5" opacity="0.5"/>
  <circle cx="350" cy="340" r="22" fill="#221040" stroke="#b07fec" stroke-width="1.5" opacity="0.85"/>
  <circle cx="480" cy="260" r="14" fill="#221040" stroke="#b07fec" stroke-width="1" opacity="0.7"/>
  <circle cx="280" cy="380" r="10" fill="#221040" stroke="#8060c0" stroke-width="1" opacity="0.6"/>
  <circle cx="560" cy="230" r="8" fill="#221040" stroke="#8060c0" stroke-width="1" opacity="0.5"/>
  <text x="400" y="545" text-anchor="middle" fill="rgba(176,127,236,0.25)" font-family="Georgia,serif" font-size="13" font-style="italic" letter-spacing="0.15em">worldbuilding</text>
</svg>
