<svg xmlns="http://www.w3.org/2000/svg" width="800" height="600" viewBox="0 0 800 600">
  <rect width="800" height="600" fill="#06021a"/>
  <circle cx="400" cy="300" r="6" fill="#e0c8ff" opacity="0.9"/>
  <circle cx="290" cy="220" r="4" fill="#b07fec" opacity="0.7"/>
  <circle cx="520" cy="180" r="3" fill="#b07fec" opacity="0.65"/>
  <circle cx="580" cy="310" r="4" fill="#b07fec" opacity="0.6"/>
  <circle cx="470" cy="420" r="3" fill="#b07fec" opacity="0.55"/>
  <circle cx="310" cy="410" r="5" fill="#b07fec" opacity="0.65"/>
  <circle cx="200" cy="340" r="3" fill="#8060c0" opacity="0.5"/>
  <circle cx="340" cy="160" r="3" fill="#8060c0" opacity="0.5"/>
  <circle cx="600" cy="240" r="2" fill="#8060c0" opacity="0.45"/>
  <circle cx="500" cy="480" r="2" fill="#8060c0" opacity="0.4"/>
  <line x1="400" y1="300" x2="290" y2="220" stroke="#503575" stroke-width="1" opacity="0.45"/>
  <line x1="290" y1="220" x2="520" y2="180" stroke="#503575" stroke-width="1" opacity="0.4"/>
  <line x1="520" y1="180" x2="580" y2="310" stroke="#503575" stroke-width="1" opacity="0.4"/>
  <line x1="580" y1="310" x2="470" y2="420" stroke="#503575" stroke-width="1" opacity="0.4"/>
  <line x1="470" y1="420" x2="310" y2="410" stroke="#503575" stroke-width="1" opacity="0.4"/>
  <line x1="310" y1="410" x2="400" y2="300" stroke="#503575" stroke-width="1" opacity="0.4"/>
  <line x1="290" y1="220" x2="310" y2="410" stroke="#3a1860" stroke-width="0.8" opacity="0.3"/>
  <line x1="400" y1="300" x2="580" y2="310" stroke="#3a1860" stroke-width="0.8" opacity="0.3"/>
  <text x="400" y="545" text-anchor="middle" fill="rgba(176,127,236,0.25)" font-family="Georgia,serif" font-size="13" font-style="italic" letter-spacing="0.15em">worldbuilding</text>
</svg>
