<svg xmlns="http://www.w3.org/2000/svg" width="800" height="600" viewBox="0 0 800 600">
  <rect width="800" height="600" fill="#08031a"/>
  <circle cx="400" cy="290" r="160" fill="none" stroke="#3a1860" stroke-width="1" opacity="0.6"/>
  <circle cx="400" cy="290" r="120" fill="none" stroke="#503575" stroke-width="1" opacity="0.5"/>
  <circle cx="400" cy="290" r="80" fill="none" stroke="#6a4090" stroke-width="1.5" opacity="0.5"/>
  <polygon points="400,170 415,230 478,230 427,268 447,328 400,290 353,328 373,268 322,230 385,230" fill="none" stroke="#b07fec" stroke-width="1.5" opacity="0.6"/>
  <polygon points="400,195 411,230 448,230 418,252 428,288 400,268 372,288 382,252 352,230 389,230" fill="#221040" opacity="0.5"/>
  <circle cx="400" cy="290" r="12" fill="#b07fec" opacity="0.5"/>
  <circle cx="400" cy="290" r="5" fill="#e0c8ff" opacity="0.7"/>
  <circle cx="310" cy="210" r="3" fill="#b07fec" opacity="0.5"/>
  <circle cx="490" cy="210" r="3" fill="#b07fec" opacity="0.5"/>
  <circle cx="340" cy="380" r="3" fill="#b07fec" opacity="0.4"/>
  <circle cx="460" cy="380" r="3" fill="#b07fec" opacity="0.4"/>
  <text x="400" y="545" text-anchor="middle" fill="rgba(176,127,236,0.25)" font-family="Georgia,serif" font-size="13" font-style="italic" letter-spacing="0.15em">worldbuilding</text>
</svg>
